name rise32.9588peak41.5061fall63.4684.mot
datacolumns 19
datarows 24
range 20.71992100000000 20.75825100000000
endheader
time	ground_force1_vx	ground_force1_vy	ground_force1_vz	ground_force1_px	ground_force1_py	ground_force1_pz	ground_force2_vx	ground_force2_vy	ground_force2_vz	ground_force2_px	ground_force2_py	ground_force2_pz	ground_torque1_x	ground_torque1_y	ground_torque1_z	ground_torque2_x	ground_torque2_y	ground_torque2_z	
20.71992100000000	46.02030700000000	742.39589000000001	50.64237200000000	0.24274600000000	0.00000000000000	0.11030100000000	0.00000000000000	0.00000000000000	0.00000000000000	0.00000000000000	0.00000000000000	0.00000000000000	0.00000000000000	14.58899100000000	0.00000000000000	0.00000000000000	0.00000000000000	0.00000000000000	
20.72159100000000	45.32315500000000	743.96860500000003	50.60835800000000	0.24186300000000	0.00000000000000	0.11026500000000	0.00000000000000	0.00000000000000	0.00000000000000	0.00000000000000	0.00000000000000	0.00000000000000	0.00000000000000	14.59991900000000	0.00000000000000	0.00000000000000	0.00000000000000	0.00000000000000	
20.72325100000000	44.64019000000000	745.49347399999999	50.57682700000000	0.24102500000000	0.00000000000000	0.11022800000000	0.00000000000000	0.00000000000000	0.00000000000000	0.00000000000000	0.00000000000000	0.00000000000000	0.00000000000000	14.61219700000000	0.00000000000000	0.00000000000000	0.00000000000000	0.00000000000000	
20.72492600000000	43.97158600000000	746.96926699999995	50.54802800000000	0.24023000000000	0.00000000000000	0.11019100000000	0.00000000000000	0.00000000000000	0.00000000000000	0.00000000000000	0.00000000000000	0.00000000000000	0.00000000000000	14.62585800000000	0.00000000000000	0.00000000000000	0.00000000000000	0.00000000000000	
20.72658400000000	43.31739800000000	748.39466200000004	50.52212800000000	0.23947600000000	0.00000000000000	0.11015300000000	0.00000000000000	0.00000000000000	0.00000000000000	0.00000000000000	0.00000000000000	0.00000000000000	0.00000000000000	14.64090400000000	0.00000000000000	0.00000000000000	0.00000000000000	0.00000000000000	
20.72825000000000	42.67756700000000	749.76825899999994	50.49921200000000	0.23876000000000	0.00000000000000	0.11011600000000	0.00000000000000	0.00000000000000	0.00000000000000	0.00000000000000	0.00000000000000	0.00000000000000	0.00000000000000	14.65730200000000	0.00000000000000	0.00000000000000	0.00000000000000	0.00000000000000	
20.72992100000000	42.05192800000000	751.08860200000004	50.47928600000000	0.23807800000000	0.00000000000000	0.11007800000000	0.00000000000000	0.00000000000000	0.00000000000000	0.00000000000000	0.00000000000000	0.00000000000000	0.00000000000000	14.67499100000000	0.00000000000000	0.00000000000000	0.00000000000000	0.00000000000000	
20.73158400000000	41.44021400000000	752.35419100000001	50.46228600000000	0.23742800000000	0.00000000000000	0.11004000000000	0.00000000000000	0.00000000000000	0.00000000000000	0.00000000000000	0.00000000000000	0.00000000000000	0.00000000000000	14.69388000000000	0.00000000000000	0.00000000000000	0.00000000000000	0.00000000000000	
20.73325800000000	40.84206400000000	753.56350299999997	50.44807500000000	0.23680700000000	0.00000000000000	0.11000300000000	0.00000000000000	0.00000000000000	0.00000000000000	0.00000000000000	0.00000000000000	0.00000000000000	0.00000000000000	14.71385300000000	0.00000000000000	0.00000000000000	0.00000000000000	0.00000000000000	
20.73492500000000	40.25703000000000	754.71501000000001	50.43645300000000	0.23621100000000	0.00000000000000	0.10996600000000	0.00000000000000	0.00000000000000	0.00000000000000	0.00000000000000	0.00000000000000	0.00000000000000	0.00000000000000	14.73476900000000	0.00000000000000	0.00000000000000	0.00000000000000	0.00000000000000	
20.73658600000000	39.68458400000000	755.80718899999999	50.42716000000000	0.23563600000000	0.00000000000000	0.10993000000000	0.00000000000000	0.00000000000000	0.00000000000000	0.00000000000000	0.00000000000000	0.00000000000000	0.00000000000000	14.75646400000000	0.00000000000000	0.00000000000000	0.00000000000000	0.00000000000000	
20.73825400000000	39.12412600000000	756.83854599999995	50.41987800000000	0.23508000000000	0.00000000000000	0.10989400000000	0.00000000000000	0.00000000000000	0.00000000000000	0.00000000000000	0.00000000000000	0.00000000000000	0.00000000000000	14.77875600000000	0.00000000000000	0.00000000000000	0.00000000000000	0.00000000000000	
20.73991800000000	38.57499200000000	757.80762400000003	50.41424300000000	0.23453800000000	0.00000000000000	0.10985900000000	0.00000000000000	0.00000000000000	0.00000000000000	0.00000000000000	0.00000000000000	0.00000000000000	0.00000000000000	14.80144300000000	0.00000000000000	0.00000000000000	0.00000000000000	0.00000000000000	
20.74159300000000	38.03646300000000	758.71302000000003	50.40984300000000	0.23400700000000	0.00000000000000	0.10982600000000	0.00000000000000	0.00000000000000	0.00000000000000	0.00000000000000	0.00000000000000	0.00000000000000	0.00000000000000	14.82430700000000	0.00000000000000	0.00000000000000	0.00000000000000	0.00000000000000	
20.74325200000000	37.50777200000000	759.55340100000001	50.40623100000000	0.23348400000000	0.00000000000000	0.10979300000000	0.00000000000000	0.00000000000000	0.00000000000000	0.00000000000000	0.00000000000000	0.00000000000000	0.00000000000000	14.84711700000000	0.00000000000000	0.00000000000000	0.00000000000000	0.00000000000000	
20.74492200000000	36.98811300000000	760.32751299999995	50.40292400000000	0.23296400000000	0.00000000000000	0.10976200000000	0.00000000000000	0.00000000000000	0.00000000000000	0.00000000000000	0.00000000000000	0.00000000000000	0.00000000000000	14.86963200000000	0.00000000000000	0.00000000000000	0.00000000000000	0.00000000000000	
20.74658600000000	36.47664700000000	761.03419399999996	50.39941200000000	0.23244400000000	0.00000000000000	0.10973200000000	0.00000000000000	0.00000000000000	0.00000000000000	0.00000000000000	0.00000000000000	0.00000000000000	0.00000000000000	14.89160100000000	0.00000000000000	0.00000000000000	0.00000000000000	0.00000000000000	
20.74825300000000	35.97251600000000	761.67238599999996	50.39516400000000	0.23192100000000	0.00000000000000	0.10970400000000	0.00000000000000	0.00000000000000	0.00000000000000	0.00000000000000	0.00000000000000	0.00000000000000	0.00000000000000	14.91276700000000	0.00000000000000	0.00000000000000	0.00000000000000	0.00000000000000	
20.74992200000000	35.47484400000000	762.24114599999996	50.38963400000000	0.23139200000000	0.00000000000000	0.10967800000000	0.00000000000000	0.00000000000000	0.00000000000000	0.00000000000000	0.00000000000000	0.00000000000000	0.00000000000000	14.93286800000000	0.00000000000000	0.00000000000000	0.00000000000000	0.00000000000000	
20.75159000000000	34.98275100000000	762.73965099999998	50.38226400000000	0.23085200000000	0.00000000000000	0.10965300000000	0.00000000000000	0.00000000000000	0.00000000000000	0.00000000000000	0.00000000000000	0.00000000000000	0.00000000000000	14.95164100000000	0.00000000000000	0.00000000000000	0.00000000000000	0.00000000000000	
20.75325300000000	34.49535800000000	763.16721199999995	50.37249300000000	0.23029900000000	0.00000000000000	0.10963000000000	0.00000000000000	0.00000000000000	0.00000000000000	0.00000000000000	0.00000000000000	0.00000000000000	0.00000000000000	14.96882300000000	0.00000000000000	0.00000000000000	0.00000000000000	0.00000000000000	
20.75492600000000	34.01179400000000	763.52327600000001	50.35975900000000	0.22973000000000	0.00000000000000	0.10960900000000	0.00000000000000	0.00000000000000	0.00000000000000	0.00000000000000	0.00000000000000	0.00000000000000	0.00000000000000	14.98415500000000	0.00000000000000	0.00000000000000	0.00000000000000	0.00000000000000	
20.75659100000000	33.53120400000000	763.80743700000005	50.34350600000000	0.22914100000000	0.00000000000000	0.10958900000000	0.00000000000000	0.00000000000000	0.00000000000000	0.00000000000000	0.00000000000000	0.00000000000000	0.00000000000000	14.99738300000000	0.00000000000000	0.00000000000000	0.00000000000000	0.00000000000000	
20.75825100000000	33.05275900000000	764.01943500000004	50.32319200000000	0.22853100000000	0.00000000000000	0.10957200000000	0.00000000000000	0.00000000000000	0.00000000000000	0.00000000000000	0.00000000000000	0.00000000000000	0.00000000000000	15.00825800000000	0.00000000000000	0.00000000000000	0.00000000000000	0.00000000000000	
